# xmcd CD database file
#
# Track frame offsets:
#	150
#	10528
#	21472
#	34499
#	43346
#	54966
#	68466
#	79774
#	91258
#	102820
#	116945
#	129690
#	139184
#	151565
#	166384
#	182056
#	187496
#	200894
#	211457
#	222039
#
# Disc length: 3097 seconds
#
# Revision: 5
# Processed by: cddbd v1.5.1PL2 Copyright (c) Steve Scherf et al.
# Submitted via: CDex 1.51
#
DISCID=220c1714
DTITLE=Various Artist - Country Gold 5
DYEAR=1900
DGENRE=
TTITLE0=Mickey Gilley - Diggie Liggie Lo
TTITLE1=Patsy Cline - I Can't Forget You
TTITLE2=Johnny Paycheck - Honky Tonk And Slow Music
TTITLE3=Jim Reeves - Home
TTITLE4=Bill Monroe - Nine Pound Hammer
TTITLE5=Burl Ives - Comin' After Jenny
TTITLE6=Carl Perkins - Be-Bob-A-Lula
TTITLE7=David Frizzell - If You Got The Money Honey
TTITLE8=Dolly Parton - Letter To Heaven
TTITLE9=Ferlin Husky - Blues In My Heart
TTITLE10=Jim Reeves - How's The World Treating You
TTITLE11=Jimmy Dean - If It's Wrong To Love You
TTITLE12=Johnny Cash - Give My Love To Rose
TTITLE13=Johnny Lee - Country Party
TTITLE14=Kenny Rogers - Good Lady Of Toronto
TTITLE15=Lee Greenwood - Mcdonalds Theme
TTITLE16=Merle Haggard - Fiddle Breakdown
TTITLE17=Johnny Paycheck - I Don't When That Will Be
TTITLE18=Patsy Cline - I Can See An Angel
TTITLE19=Kenny Rogers - Good Time Liberator
EXTD=
EXTT0=
EXTT1=
EXTT2=
EXTT3=
EXTT4=
EXTT5=
EXTT6=
EXTT7=
EXTT8=
EXTT9=
EXTT10=
EXTT11=
EXTT12=
EXTT13=
EXTT14=
EXTT15=
EXTT16=
EXTT17=
EXTT18=
EXTT19=
PLAYORDER=
